# xmcd CD database file
#
# Track frame offsets:
#	150
#	20251
#	40738
#	55649
#
# Disc length: 1014 seconds
#
# Revision: 0
# Processed by: cddbd v1.5.1PL0 Copyright (c) Steve Scherf et al.
# Submitted via: CDex 1.51
#
DISCID=2303f404
DTITLE=hitomi - LOVE 2000
DYEAR=1900
DGENRE=ロック (日本)
TTITLE0=LOVE 2000
TTITLE1=REGRET
TTITLE2=アイドルを探せ(LA PLUS BELLE POUR ALLER DANCER)
TTITLE3=destiny
EXTD=
EXTT0=
EXTT1=
EXTT2=
EXTT3=
PLAYORDER=
